<?xml version="1.0" encoding="UTF-8"?>
<svg id="Layer_1" xmlns="http://www.w3.org/2000/svg" version="1.1" viewBox="0 0 985 511">
  <!-- Generator: Adobe Illustrator 29.0.0, SVG Export Plug-In . SVG Version: 2.1.0 Build 186)  -->
  <g>
    <path d="M125.7,70c0,4.6-1.5,7-4.6,7s-5-1.7-6.3-5-2.9-7.6-4.6-12.9c-3.1-9.3-6.5-16.3-10.3-21s-9.9-7.1-18.5-7.1-14.5,2.6-19.7,7.9-7.8,12.1-7.8,20.5.9,10.3,2.8,13.6c1.9,3.3,4.4,6.2,7.6,8.6,3.2,2.4,7,4.6,11.3,6.6s8.9,4.3,13.7,7c8.2,4.4,15.3,9,21.4,13.7s11.1,9.8,15.2,15.2c4.1,5.4,7.2,11.3,9.3,17.7s3.1,13.6,3.1,21.5-1.8,20-5.3,29c-3.5,8.9-8.5,16.7-14.9,23.2s-14,11.6-22.7,15.4c-8.7,3.8-18.3,5.6-28.6,5.6s-10.3-.4-15.1-1.3c-4.7-.9-9.2-2-13.2-3.5-4.1-1.4-7.6-3-10.6-4.6-3-1.7-5.2-3.3-6.8-4.8-2-2-3.1-4.5-3.5-7.5-.3-3-.5-7.3-.5-13.1v-27.8c0-4.9,2-7.3,6-7.3s5,2.3,5.6,6.8c.7,4.5,2.1,10.5,4.3,18,5.7,21,17.3,31.5,34.8,31.5s19.8-3.1,26.3-9.4c6.5-6.3,9.8-14.5,9.8-24.7s-.8-10.3-2.5-14.4c-1.7-4.1-4.1-7.8-7.3-11.3-3.2-3.4-7.2-6.7-12.1-9.8s-10.5-6.3-16.9-9.6c-7.5-4-14.1-8.1-19.9-12.3-5.7-4.2-10.5-8.8-14.2-13.7-3.8-5-6.6-10.4-8.6-16.4s-3-12.8-3-20.5,1.7-18.3,5.1-26.3c3.4-8.1,8.1-15,14.1-20.7s12.9-10.2,20.7-13.4c7.8-3.2,16.1-4.8,24.7-4.8s17,1.1,23.8,3.3c6.8,2.2,11.5,4.4,13.9,6.6,1.8,1.8,2.9,3.6,3.3,5.5.4,1.9.7,4.4.7,7.5v31.5h0Z"/>
    <path d="M260.4,191.2c0,6.4.4,11,1.2,13.9.8,2.9,2.6,4.3,5.5,4.3s3.8-.9,5.5-2.6c1.7-1.8,3-2.6,4.1-2.6s1.5.6,2.5,1.7c1,1.1,1.5,2.5,1.5,4.3s-1,4.5-3,7.5-4.7,5.9-8.1,8.6c-3.4,2.8-7.3,5.1-11.6,7.1-4.3,2-8.8,3-13.4,3s-10.1-1.9-13.1-5.8c-3-3.9-6.1-10.2-9.5-19h-1.3c-9.1,8.4-17.4,14.7-24.9,18.9s-14.1,6.3-19.6,6.3c-8.4,0-15.1-3.2-19.9-9.5-4.9-6.3-7.3-14.4-7.3-24.4s.8-11.2,2.5-15.8c1.7-4.5,4.2-8.7,7.6-12.6,3.4-3.9,7.7-7.5,12.7-11,5.1-3.4,11-7,17.9-10.8l26.5-14.6c2.2-1.3,3.3-4.1,3.3-8.3v-21.2c0-12.8-3.3-19.2-9.9-19.2s-4.5.7-6.3,2-3.4,3-4.8,5.1c-1.4,2.1-2.9,4.6-4.3,7.5-1.4,2.9-2.9,5.9-4.5,8.9-6.6,13-16.6,19.5-29.8,19.5s-9.9-3.2-9.9-9.6,1.7-10,5.1-15.6c3.4-5.5,7.9-10.5,13.6-14.8,5.6-4.4,12.2-8,19.7-10.9s15.3-4.4,23.5-4.4c15.3,0,27.3,3.4,35.8,10.3,8.6,6.8,12.9,16.6,12.9,29.1v74.8h-.2ZM217.4,151.5c-.9,0-1.9.4-3,1.3l-9.3,6c-13.7,9.1-20.5,19.3-20.5,30.8s1.4,10.4,4.1,13.9c2.8,3.5,6.5,5.3,11.1,5.3s11-2.3,14.4-7c3.4-4.6,5.1-11.7,5.1-21.2v-25.2c0-2.6-.7-4-2-4h0Z"/>
    <path d="M329,93.9c0,2.6.4,4,1.3,4s1.3-.3,2-1l3-3c4.6-5.1,10.4-9.2,17.4-12.3,7-3.1,13.7-4.6,20.4-4.6,14.1,0,24.8,4,32.1,11.9,7.3,7.9,10.9,19.5,10.9,34.7v75c0,4.8.3,8.6.8,11.2.5,2.6,2,4.6,4.5,5.9,1.5.9,3.2,1.4,5,1.5s3.4.3,5,.7c1.5.3,2.8.9,3.8,1.8,1,.9,1.5,2.4,1.5,4.6s-.4,3.2-1.3,4.3-1.9,1.7-3,1.7-5-.4-11.1-1.2-14.6-1.2-25.7-1.2-17.7.4-23.2,1.2-9.2,1.2-10.9,1.2c-3.3,0-5-2-5-5.9s.4-3.7,1.2-4.6c.8-.9,1.8-1.5,3-1.8s2.5-.5,3.8-.5,3-.3,4.3-1c2.9-1.3,4.6-3.2,5.3-5.8.7-2.5,1-6.6,1-12.1v-64.4c0-24.7-6.4-37-19.2-37s-15,3.5-17.7,10.6c-2.8,7-4.1,16.6-4.1,28.7v62.1c0,4.6.2,8.3.7,10.9.4,2.6,1.5,4.7,3.3,6.3,1.3.9,2.6,1.4,4,1.5,1.3.1,2.5.3,3.6.7,1.1.3,2,.9,2.8,1.8.8.9,1.2,2.4,1.2,4.6,0,3.7-1.5,5.6-4.6,5.6s-4.3-.3-9.4-1c-5.2-.7-12.5-1-22-1s-18.9.4-24.8,1.2c-6,.8-9.7,1.2-11.3,1.2s-2.8-.5-3.6-1.7c-.9-1.1-1.3-2.5-1.3-4.3s.4-3.7,1.3-4.5,2-1.3,3.3-1.7c1.3-.3,2.8-.5,4.3-.7,1.5-.1,3.1-.5,4.6-1.2,3.1-1.5,5-3.6,5.8-6.1s1.2-6.4,1.2-11.7v-67.7c0-4.6-.2-8.1-.5-10.6-.3-2.4-1.7-4.4-4.1-6-1.5-.9-3.1-1.4-4.8-1.7-1.7-.2-3.1-.5-4.5-.8-1.3-.3-2.4-.8-3.3-1.5s-1.3-2-1.3-4,.5-3.7,1.7-4.6c1.1-.9,2.6-1.7,4.6-2.3,2-.7,4.4-1.3,7.3-2s6-1.9,9.3-3.6c4.6-2.2,8.5-4.6,11.6-7.3,3.1-2.6,5.7-5,7.8-7.1,2.1-2.1,3.8-3.9,5.1-5.3,1.3-1.4,2.6-2.1,4-2.1s2.5.8,2.8,2.3.5,3.5.5,6v13.6h-.4Z"/>
    <path d="M489.9,78.6c0,3.1,1.2,4.6,3.6,4.6h21.2c2.2,0,3.5.4,4,1.2.4.8.7,2,.7,3.8v5c0,2.4-.2,4.2-.7,5.3-.4,1.1-1.8,1.7-4,1.7h-21.2c-2.4,0-3.6,1.5-3.6,4.6l-1,68.2v6c0,11.3.6,19.5,1.8,24.8,1.2,5.3,3.6,7.9,7.1,7.9s3.1-.4,4.8-1.3c1.7-.9,3.3-1.9,4.8-3s2.9-2.1,4.1-3c1.2-.9,2.3-1.3,3.1-1.3s2.3.7,3.6,2.2c1.3,1.4,2,2.8,2,4.1,0,2.2-1.2,4.9-3.6,7.9-2.4,3.1-5.6,6.1-9.6,8.9-4,2.9-8.5,5.3-13.6,7.3s-10.3,3-15.6,3c-11.3,0-19.1-3.6-23.5-10.8s-6.6-18.2-6.6-32.9v-12.3l1.3-71.2c0-3.1-.2-5.6-.7-7.5-.4-1.9-1.8-2.8-4-2.8h-6c-5.1,0-7.6-1.8-7.6-5.3s.8-3.8,2.5-5.3,3.8-3.1,6.5-4.8c2.6-1.7,5.7-3.7,9.3-6.1,3.5-2.4,7.2-5.6,10.9-9.6,3.1-3.3,5.8-6.5,8.1-9.6,2.3-3.1,4.4-5.9,6.3-8.4s3.6-4.5,5.1-6c1.5-1.4,3.2-2.2,5-2.2s3.9.8,4.5,2.3c.5,1.5.8,3.8.8,6.6v27.8l.2.2Z"/>
    <path d="M632,191.2c0,6.4.4,11,1.2,13.9s2.6,4.3,5.5,4.3,3.8-.9,5.5-2.6c1.7-1.8,3-2.6,4.1-2.6s1.5.6,2.5,1.7c1,1.1,1.5,2.5,1.5,4.3s-1,4.5-3,7.5-4.7,5.9-8.1,8.6c-3.4,2.8-7.3,5.1-11.6,7.1s-8.8,3-13.4,3-10.1-1.9-13.1-5.8c-3-3.9-6.1-10.2-9.5-19h-1.3c-9.1,8.4-17.4,14.7-24.9,18.9s-14.1,6.3-19.6,6.3c-8.4,0-15.1-3.2-19.9-9.5-4.9-6.3-7.3-14.4-7.3-24.4s.8-11.2,2.5-15.8c1.7-4.5,4.2-8.7,7.6-12.6,3.4-3.9,7.7-7.5,12.7-11,5.1-3.4,11-7,17.9-10.8l26.5-14.6c2.2-1.3,3.3-4.1,3.3-8.3v-21.2c0-12.8-3.3-19.2-9.9-19.2s-4.5.7-6.3,2-3.4,3-4.8,5.1c-1.4,2.1-2.9,4.6-4.3,7.5-1.4,2.9-2.9,5.9-4.5,8.9-6.6,13-16.6,19.5-29.8,19.5s-9.9-3.2-9.9-9.6,1.7-10,5.1-15.6c3.4-5.5,7.9-10.5,13.6-14.8,5.6-4.4,12.2-8,19.7-10.9s15.3-4.4,23.5-4.4c15.3,0,27.3,3.4,35.8,10.3,8.6,6.8,12.9,16.6,12.9,29.1v74.8h-.2ZM588.9,151.5c-.9,0-1.9.4-3,1.3l-9.3,6c-13.7,9.1-20.5,19.3-20.5,30.8s1.4,10.4,4.1,13.9c2.8,3.5,6.5,5.3,11.1,5.3s11-2.3,14.4-7c3.4-4.6,5.1-11.7,5.1-21.2v-25.2c0-2.6-.7-4-2-4h.1Z"/>
  </g>
  <g>
    <path d="M171.7,295.1h-84.4v48.8h80.2v49.2h-80.2v56h84.4v49.2H29.1v-252.3h142.6v49.2h0Z"/>
    <path d="M238.3,245.9v203.1h78.3v49.2h-136.6v-252.3h58.3Z"/>
    <path d="M361.2,498.2l31.4-252.3h50.7l116.1,164.2,20.4-164.2h58.3l-31,252.3h-50.7l-116.9-164.9-20,164.9h-58.3Z"/>
    <path d="M784.9,245.9l-6.8,55.6h-74.1l-5.3,42h71.9l-6.8,55.2h-71.9l-5.3,43.9h77.2l-6.8,55.6h-141.1l31-252.3h138.1-.1Z"/>
    <path d="M805.3,455.8l-19.3,42.4h-71.1l125.2-252.3h71.9l60.9,252.3h-67l-10.6-42.4h-90ZM828.8,405.9h54.5l-10.6-48c-4.2-19.3-4.5-21.6-5.7-29.1-.4-1.9-1.1-4.9-1.5-9.1-4.2,13.2-7.6,21.2-11.3,29.9l-25.3,56.4h-.1Z"/>
  </g>
</svg>